<svg xmlns="http://www.w3.org/2000/svg" viewBox="0 0 512 512" width="512" height="512">
  <defs>
    <linearGradient id="bg" x1="0%" y1="0%" x2="100%" y2="100%">
      <stop offset="0%" style="stop-color:#0ea5e9"/>
      <stop offset="100%" style="stop-color:#0284c7"/>
    </linearGradient>
  </defs>
  <rect width="512" height="512" rx="80" fill="url(#bg)"/>
  <g fill="white">
    <!-- Medical Cross -->
    <rect x="206" y="120" width="100" height="272" rx="12"/>
    <rect x="120" y="206" width="272" height="100" rx="12"/>
    <!-- Heart icon at bottom -->
    <path d="M256 420c-8-8-100-80-100-140 0-40 30-60 60-60 20 0 32 12 40 24 8-12 20-24 40-24 30 0 60 20 60 60 0 60-92 132-100 140z" transform="translate(0,-30) scale(0.5) translate(256, 500)"/>
  </g>
  <!-- CCC Text -->
  <text x="256" y="470" font-family="Arial, sans-serif" font-size="48" font-weight="bold" fill="white" text-anchor="middle">CCC</text>
</svg>
